<mxfile host="app.diagrams.net" modified="2023-06-12T19:20:55.581Z" agent="Mozilla/5.0 (Windows NT 10.0; Win64; x64) AppleWebKit/537.36 (KHTML, like Gecko) Chrome/113.0.0.0 Safari/537.36" version="21.3.8" etag="LXRt9vs0uYrVFnSrGnHq" type="github">
  <diagram name="Seite-1" id="jxkn-ivbrKEnn9NsxWAQ">
    <mxGraphModel>
      <root>
        <mxCell id="0" />
        <mxCell id="1" parent="0" />
      </root>
    </mxGraphModel>
  </diagram>
</mxfile>
